<svg xmlns="http://www.w3.org/2000/svg" width="369" height="218" viewBox="0 0 369 218">
  <g id="Group_209" data-name="Group 209" transform="translate(-140 -279)">
    <g id="Group_109" data-name="Group 109" transform="translate(17 7)">
      <g id="Rectangle_27" data-name="Rectangle 27" transform="translate(123 272)" fill="#fff" stroke="#000" stroke-width="2">
        <rect width="369" height="218" rx="32" stroke="none"/>
        <rect x="1" y="1" width="367" height="216" rx="31" fill="none"/>
      </g>
    </g>
    <g id="Group_181" data-name="Group 181" transform="translate(4 6)">
      <g id="Group_179" data-name="Group 179" transform="translate(30 61)">
        <g id="Group_163" data-name="Group 163" transform="translate(0 -15)">
          <g id="Group_109-2" data-name="Group 109" transform="translate(-12 7)">
            <g id="Group_21" data-name="Group 21" transform="translate(152 298)">
              <text id="Think_Grow_Rich" data-name="Think &amp; Grow Rich" transform="translate(0 -13)" fill="#292929" font-size="36" font-family="NiveauGroteskBold, Niveau Grotesk"><tspan x="0" y="0">Think &amp; Grow Rich</tspan></text>
            </g>
          </g>
          <g id="Group_162" data-name="Group 162" transform="translate(-308 34)">
            <path id="Icon_awesome-star" data-name="Icon awesome-star" d="M12.005.787,9.116,6.644l-6.463.942A1.416,1.416,0,0,0,1.87,10l4.676,4.556L5.44,20.994a1.415,1.415,0,0,0,2.053,1.491l5.782-3.039,5.782,3.039a1.416,1.416,0,0,0,2.053-1.491L20,14.558,24.679,10A1.416,1.416,0,0,0,23.9,7.586l-6.463-.942L14.544.787a1.417,1.417,0,0,0-2.539,0Z" transform="translate(446.559 310.001)" fill="#ffba00"/>
            <path id="Icon_awesome-star-2" data-name="Icon awesome-star" d="M12.005.787,9.116,6.644l-6.463.942A1.416,1.416,0,0,0,1.87,10l4.676,4.556L5.44,20.994a1.415,1.415,0,0,0,2.053,1.491l5.782-3.039,5.782,3.039a1.416,1.416,0,0,0,2.053-1.491L20,14.558,24.679,10A1.416,1.416,0,0,0,23.9,7.586l-6.463-.942L14.544.787a1.417,1.417,0,0,0-2.539,0Z" transform="translate(476.142 310.001)" fill="#ffba00"/>
            <path id="Icon_awesome-star-3" data-name="Icon awesome-star" d="M12.005.787,9.116,6.644l-6.463.942A1.416,1.416,0,0,0,1.87,10l4.676,4.556L5.44,20.994a1.415,1.415,0,0,0,2.053,1.491l5.782-3.039,5.782,3.039a1.416,1.416,0,0,0,2.053-1.491L20,14.558,24.679,10A1.416,1.416,0,0,0,23.9,7.586l-6.463-.942L14.544.787a1.417,1.417,0,0,0-2.539,0Z" transform="translate(505.725 310.001)" fill="#ffba00"/>
            <path id="Icon_awesome-star-4" data-name="Icon awesome-star" d="M12.005.787,9.116,6.644l-6.463.942A1.416,1.416,0,0,0,1.87,10l4.676,4.556L5.44,20.994a1.415,1.415,0,0,0,2.053,1.491l5.782-3.039,5.782,3.039a1.416,1.416,0,0,0,2.053-1.491L20,14.558,24.679,10A1.416,1.416,0,0,0,23.9,7.586l-6.463-.942L14.544.787a1.417,1.417,0,0,0-2.539,0Z" transform="translate(535.309 310.001)" fill="#ffba00"/>
            <path id="Icon_awesome-star-half-alt" data-name="Icon awesome-star-half-alt" d="M22.454,7.573l-6.463-.941L13.1.786a1.418,1.418,0,0,0-2.539,0L7.675,6.631l-6.463.94a1.413,1.413,0,0,0-.783,2.41L5.1,14.53,4,20.953a1.416,1.416,0,0,0,1.4,1.654,1.4,1.4,0,0,0,.657-.166l5.782-3.032,5.781,3.033a1.413,1.413,0,0,0,2.053-1.488l-1.105-6.424,4.676-4.547a1.413,1.413,0,0,0-.783-2.411Zm-5.375,5.44-.8.778.189,1.1L17.33,19.9,12.82,17.532l-.988-.518V3.009l2.253,4.561.494,1,1.1.161,5.044.734-3.649,3.549Z" transform="translate(566.334 310.232)" fill="#ffba00"/>
          </g>
        </g>
        <g id="Group_171" data-name="Group 171" transform="translate(0 -2)">
          <text id="Napoleon_Hill" data-name="Napoleon Hill" transform="translate(141 314)" fill="#292929" font-size="20" font-family="NiveauGroteskRegular, Niveau Grotesk"><tspan x="0" y="0">Napoleon Hill</tspan></text>
          <g id="Rectangle_37" data-name="Rectangle 37" transform="translate(131 292)" fill="none" stroke="#000" stroke-width="1">
            <rect width="138" height="31" rx="11" stroke="none"/>
            <rect x="0.5" y="0.5" width="137" height="30" rx="10.5" fill="none"/>
          </g>
        </g>
      </g>
      <text id="Think_and_Grow_Rich_was_" data-name="Think and Grow Rich was …" transform="translate(169 432)" fill="#292929" font-size="24" font-family="NiveauGroteskRegular, Niveau Grotesk"><tspan x="0" y="22">Think and Grow Rich was …</tspan></text>
    </g>
  </g>
</svg>
