<svg xmlns="http://www.w3.org/2000/svg" width="1640" height="740" viewBox="0 0 1640 740">
  <g id="Group_213" data-name="Group 213" transform="translate(-140 -279)">
    <g id="Group_210" data-name="Group 210">
      <g id="Group_126" data-name="Group 126" transform="translate(441 7)">
        <g id="Rectangle_27" data-name="Rectangle 27" transform="translate(123 272)" fill="#fff" stroke="#000" stroke-width="2">
          <rect width="369" height="218" rx="32" stroke="none"/>
          <rect x="1" y="1" width="367" height="216" rx="31" fill="none"/>
        </g>
        <g id="Group_21" data-name="Group 21" transform="translate(152 298)">
          <text id="The_Millionaire_Next_Door" data-name="The Millionaire Next Door" fill="#292929" font-size="36" font-family="NiveauGroteskBold, Niveau Grotesk"><tspan x="0" y="33">The Millionaire </tspan><tspan x="0" y="74">Next Door</tspan></text>
          <text id="The_Millionaire_Next_Door:_The_Surprising_Secrets_of_Am_" data-name="The Millionaire Next Door: The Surprising Secrets of Am …" transform="translate(0 97)" fill="#292929" font-size="24" font-family="NiveauGroteskRegular, Niveau Grotesk"><tspan x="0" y="22">The Millionaire Next Door: The </tspan><tspan x="0" y="50">Surprising Secrets of Am …</tspan></text>
        </g>
      </g>
    </g>
    <g id="Group_211" data-name="Group 211">
      <g id="Group_127" data-name="Group 127" transform="translate(864 7)">
        <g id="Rectangle_27-2" data-name="Rectangle 27" transform="translate(123 272)" fill="#fff" stroke="#000" stroke-width="2">
          <rect width="369" height="218" rx="32" stroke="none"/>
          <rect x="1" y="1" width="367" height="216" rx="31" fill="none"/>
        </g>
        <g id="Group_21-2" data-name="Group 21" transform="translate(152 298)">
          <text id="Rich_Dad_Poor_Dad" data-name="Rich Dad, Poor Dad" transform="translate(0 33)" fill="#292929" font-size="36" font-family="NiveauGroteskBold, Niveau Grotesk"><tspan x="0" y="0">Rich Dad, Poor Dad</tspan></text>
          <text id="Rich_Dad_Poor_Dad_is_a_1997_book_written_by_Robert_Kiyosaki_and_Sharon_Lechter._It_advocates_" data-name="Rich Dad Poor Dad is a 1997 book written by Robert Kiyosaki and Sharon Lechter.  It advocates …" transform="translate(0 56)" fill="#292929" font-size="24" font-family="NiveauGroteskRegular, Niveau Grotesk"><tspan x="0" y="22">Rich Dad Poor Dad is a 1997 </tspan><tspan x="0" y="50">book written by Robert </tspan><tspan x="0" y="78" xml:space="preserve">Kiyosaki and Sharon Lechter.  </tspan><tspan x="0" y="106">It advocates …</tspan></text>
        </g>
      </g>
    </g>
    <g id="Group_212" data-name="Group 212">
      <g id="Group_128" data-name="Group 128" transform="translate(1288 7)">
        <g id="Rectangle_27-3" data-name="Rectangle 27" transform="translate(123 272)" fill="#fff" stroke="#000" stroke-width="2">
          <rect width="369" height="218" rx="32" stroke="none"/>
          <rect x="1" y="1" width="367" height="216" rx="31" fill="none"/>
        </g>
        <g id="Group_21-3" data-name="Group 21" transform="translate(152 298)">
          <text id="The_Richest_Man_In_Babylon" data-name="The Richest Man In Babylon" fill="#292929" font-size="36" font-family="NiveauGroteskBold, Niveau Grotesk"><tspan x="0" y="33">The Richest Man In </tspan><tspan x="0" y="74">Babylon</tspan></text>
          <text id="Push_yourself_everyday_and_become_a_better_you_." data-name="Push yourself everyday and become a better you …." transform="translate(0 97)" fill="#292929" font-size="24" font-family="NiveauGroteskRegular, Niveau Grotesk"><tspan x="0" y="22">Push yourself everyday and </tspan><tspan x="0" y="50">become a better you ….</tspan></text>
        </g>
      </g>
    </g>
    <g id="Group_129" data-name="Group 129" transform="translate(17 268)">
      <g id="Rectangle_27-4" data-name="Rectangle 27" transform="translate(123 272)" fill="#fff" stroke="#000" stroke-width="2">
        <rect width="369" height="218" rx="32" stroke="none"/>
        <rect x="1" y="1" width="367" height="216" rx="31" fill="none"/>
      </g>
      <g id="Group_21-4" data-name="Group 21" transform="translate(152 298)">
        <text id="Broke_Millennial" data-name="Broke Millennial" transform="translate(0 33)" fill="#292929" font-size="36" font-family="NiveauGroteskBold, Niveau Grotesk"><tspan x="0" y="0">Broke Millennial</tspan></text>
        <text id="WASHINGTON_POST_COLOR_OF_MONEY_BOOK_CLUB_PICKStop_Living_Paycheck_to_Paycheck_and_Get_Your_" data-name="WASHINGTON POST “COLOR OF MONEY” BOOK CLUB PICKStop Living Paycheck to Paycheck and Get Your …" transform="translate(0 59)" fill="#292929" font-size="24" font-family="NiveauGroteskRegular, Niveau Grotesk"><tspan x="0" y="22">WASHINGTON POST “COLOR </tspan><tspan x="0" y="50">OF MONEY” BOOK CLUB </tspan><tspan x="0" y="78">PICKStop Living Paycheck to </tspan><tspan x="0" y="106">Paycheck and Get Your …</tspan></text>
      </g>
    </g>
    <g id="Group_130" data-name="Group 130" transform="translate(441 268)">
      <g id="Rectangle_27-5" data-name="Rectangle 27" transform="translate(123 272)" fill="#fff" stroke="#000" stroke-width="2">
        <rect width="369" height="218" rx="32" stroke="none"/>
        <rect x="1" y="1" width="367" height="216" rx="31" fill="none"/>
      </g>
      <g id="Group_21-5" data-name="Group 21" transform="translate(152 298)">
        <text id="The_Psychology_Of_Money" data-name="The Psychology Of Money" fill="#292929" font-size="36" font-family="NiveauGroteskBold, Niveau Grotesk"><tspan x="0" y="33">The Psychology Of </tspan><tspan x="0" y="74">Money</tspan></text>
        <text id="Doing_well_with_money_isn_t_necessarily_about_what_you_" data-name="Doing well with money isn’t necessarily about what you …" transform="translate(0 97)" fill="#292929" font-size="24" font-family="NiveauGroteskRegular, Niveau Grotesk"><tspan x="0" y="22">Doing well with money isn’t </tspan><tspan x="0" y="50">necessarily about what you …</tspan></text>
      </g>
    </g>
    <g id="Group_131" data-name="Group 131" transform="translate(864 268)">
      <g id="Rectangle_27-6" data-name="Rectangle 27" transform="translate(123 272)" fill="#fff" stroke="#000" stroke-width="2">
        <rect width="369" height="218" rx="32" stroke="none"/>
        <rect x="1" y="1" width="367" height="216" rx="31" fill="none"/>
      </g>
      <g id="Group_21-6" data-name="Group 21" transform="translate(152 298)">
        <text id="The_Financial_Diet" data-name="The Financial Diet" transform="translate(0 33)" fill="#292929" font-size="36" font-family="NiveauGroteskBold, Niveau Grotesk"><tspan x="0" y="0">The Financial Diet</tspan></text>
        <text id="From_The_Financial_Diet_blog_the_hugely_popular_website_that_inspires_over_a_million_women_a_month_to_._" data-name="From The Financial Diet blog, the hugely popular website that inspires over a million women a month to …. " transform="translate(0 59)" fill="#292929" font-size="24" font-family="NiveauGroteskRegular, Niveau Grotesk"><tspan x="0" y="22">From The Financial Diet blog, </tspan><tspan x="0" y="50">the hugely popular website </tspan><tspan x="0" y="78">that inspires over a million </tspan><tspan x="0" y="106">women a month to …. </tspan></text>
      </g>
    </g>
    <g id="Group_132" data-name="Group 132" transform="translate(1288 268)">
      <g id="Rectangle_27-7" data-name="Rectangle 27" transform="translate(123 272)" fill="#fff" stroke="#000" stroke-width="2">
        <rect width="369" height="218" rx="32" stroke="none"/>
        <rect x="1" y="1" width="367" height="216" rx="31" fill="none"/>
      </g>
      <g id="Group_21-7" data-name="Group 21" transform="translate(152 298)">
        <text id="UNSHAKEABLE" transform="translate(0 33)" fill="#292929" font-size="36" font-family="NiveauGroteskBold, Niveau Grotesk"><tspan x="0" y="0">UNSHAKEABLE</tspan></text>
        <text id="_THE_NEW_YORK_TIMES_BESTSELLER_Tony_Robbins_arguably_the_most_recognizable_life_and_busin_" data-name="*THE NEW YORK TIMES BESTSELLER* Tony Robbins, arguably the most recognizable life and busin …" transform="translate(0 59)" fill="#292929" font-size="24" font-family="NiveauGroteskRegular, Niveau Grotesk"><tspan x="0" y="22">*THE NEW YORK TIMES </tspan><tspan x="0" y="50">BESTSELLER* Tony Robbins, </tspan><tspan x="0" y="78">arguably the most </tspan><tspan x="0" y="106">recognizable life and busin …</tspan></text>
      </g>
    </g>
    <g id="Group_133" data-name="Group 133" transform="translate(17 529)">
      <g id="Rectangle_27-8" data-name="Rectangle 27" transform="translate(123 272)" fill="#fff" stroke="#000" stroke-width="2">
        <rect width="369" height="218" rx="32" stroke="none"/>
        <rect x="1" y="1" width="367" height="216" rx="31" fill="none"/>
      </g>
      <g id="Group_21-8" data-name="Group 21" transform="translate(152 298)">
        <text id="The_4-Hour_Work_Week" data-name="The 4-Hour Work Week" fill="#292929" font-size="36" font-family="NiveauGroteskBold, Niveau Grotesk"><tspan x="0" y="33">The 4-Hour Work </tspan><tspan x="0" y="74">Week</tspan></text>
        <text id="The_4-Hour_Workweek:_Escape_9_5_Live_Anywhere_" data-name="The 4-Hour Workweek: Escape 9–5, Live Anywhere …" transform="translate(0 97)" fill="#292929" font-size="24" font-family="NiveauGroteskRegular, Niveau Grotesk"><tspan x="0" y="22">The 4-Hour Workweek: </tspan><tspan x="0" y="50">Escape 9–5, Live Anywhere …</tspan></text>
      </g>
    </g>
    <g id="Group_134" data-name="Group 134" transform="translate(441 529)">
      <g id="Rectangle_27-9" data-name="Rectangle 27" transform="translate(123 272)" fill="#fff" stroke="#000" stroke-width="2">
        <rect width="369" height="218" rx="32" stroke="none"/>
        <rect x="1" y="1" width="367" height="216" rx="31" fill="none"/>
      </g>
      <g id="Group_21-9" data-name="Group 21" transform="translate(152 298)">
        <text id="Guide_To_Investing" data-name="Guide To Investing" transform="translate(0 33)" fill="#292929" font-size="36" font-family="NiveauGroteskBold, Niveau Grotesk"><tspan x="0" y="0">Guide To Investing</tspan></text>
        <text id="Investing_means_different_things_to_different_people_and_there_is_a_huge_difference_between_passive_investing_" data-name="Investing means different things to different people… and there is a huge difference between passive investing …" transform="translate(0 59)" fill="#292929" font-size="24" font-family="NiveauGroteskRegular, Niveau Grotesk"><tspan x="0" y="22">Investing means different </tspan><tspan x="0" y="50">things to different people… </tspan><tspan x="0" y="78">and there is a huge difference </tspan><tspan x="0" y="106">between passive investing …</tspan></text>
      </g>
    </g>
    <g id="Group_135" data-name="Group 135" transform="translate(864 529)">
      <g id="Rectangle_27-10" data-name="Rectangle 27" transform="translate(123 272)" fill="#fff" stroke="#000" stroke-width="2">
        <rect width="369" height="218" rx="32" stroke="none"/>
        <rect x="1" y="1" width="367" height="216" rx="31" fill="none"/>
      </g>
      <g id="Group_21-10" data-name="Group 21" transform="translate(152 298)">
        <text id="The_Intelligent_Investor" data-name="The Intelligent Investor" fill="#292929" font-size="36" font-family="NiveauGroteskBold, Niveau Grotesk"><tspan x="0" y="33">The Intelligent </tspan><tspan x="0" y="74">Investor</tspan></text>
        <text id="The_Intelligent_Investor_by_Benjamin_Graham_first_pub_" data-name="The Intelligent Investor by Benjamin Graham, first pub …" transform="translate(0 97)" fill="#292929" font-size="24" font-family="NiveauGroteskRegular, Niveau Grotesk"><tspan x="0" y="22">The Intelligent Investor by </tspan><tspan x="0" y="50">Benjamin Graham, first pub …</tspan></text>
      </g>
    </g>
    <g id="Group_136" data-name="Group 136" transform="translate(1288 529)">
      <g id="Rectangle_27-11" data-name="Rectangle 27" transform="translate(123 272)" fill="#fff" stroke="#000" stroke-width="2">
        <rect width="369" height="218" rx="32" stroke="none"/>
        <rect x="1" y="1" width="367" height="216" rx="31" fill="none"/>
      </g>
      <g id="Group_21-11" data-name="Group 21" transform="translate(152 298)">
        <text id="The_100_Startup" data-name="The $100 Startup" transform="translate(0 33)" fill="#292929" font-size="36" font-family="NiveauGroteskBold, Niveau Grotesk"><tspan x="0" y="0">The $100 Startup</tspan></text>
        <text id="_Here_Chris_Guillebeau_shows_you_how_to_lead_a_life_of_adventure_meaning_and_purpose_and_earn_a_good_" data-name="“Here, Chris Guillebeau shows you how to lead a life of adventure, meaning and purpose—and earn a good …" transform="translate(0 59)" fill="#292929" font-size="24" font-family="NiveauGroteskRegular, Niveau Grotesk"><tspan x="0" y="22">“Here, Chris Guillebeau shows </tspan><tspan x="0" y="50">you how to lead a life of </tspan><tspan x="0" y="78">adventure, meaning and </tspan><tspan x="0" y="106">purpose—and earn a good …</tspan></text>
      </g>
    </g>
    <g id="Group_209" data-name="Group 209">
      <g id="Group_109" data-name="Group 109" transform="translate(17 7)">
        <g id="Rectangle_27-12" data-name="Rectangle 27" transform="translate(123 272)" fill="#fff" stroke="#000" stroke-width="2">
          <rect width="369" height="218" rx="32" stroke="none"/>
          <rect x="1" y="1" width="367" height="216" rx="31" fill="none"/>
        </g>
      </g>
      <g id="Group_181" data-name="Group 181" transform="translate(4 6)">
        <g id="Group_179" data-name="Group 179" transform="translate(30 61)">
          <g id="Group_163" data-name="Group 163" transform="translate(0 -15)">
            <g id="Group_109-2" data-name="Group 109" transform="translate(-12 7)">
              <g id="Group_21-12" data-name="Group 21" transform="translate(152 298)">
                <text id="Think_Grow_Rich" data-name="Think &amp; Grow Rich" transform="translate(0 -13)" fill="#292929" font-size="36" font-family="NiveauGroteskBold, Niveau Grotesk"><tspan x="0" y="0">Think &amp; Grow Rich</tspan></text>
              </g>
            </g>
            <g id="Group_162" data-name="Group 162" transform="translate(-308 34)">
              <path id="Icon_awesome-star" data-name="Icon awesome-star" d="M12.005.787,9.116,6.644l-6.463.942A1.416,1.416,0,0,0,1.87,10l4.676,4.556L5.44,20.994a1.415,1.415,0,0,0,2.053,1.491l5.782-3.039,5.782,3.039a1.416,1.416,0,0,0,2.053-1.491L20,14.558,24.679,10A1.416,1.416,0,0,0,23.9,7.586l-6.463-.942L14.544.787a1.417,1.417,0,0,0-2.539,0Z" transform="translate(446.559 310.001)" fill="#ffba00"/>
              <path id="Icon_awesome-star-2" data-name="Icon awesome-star" d="M12.005.787,9.116,6.644l-6.463.942A1.416,1.416,0,0,0,1.87,10l4.676,4.556L5.44,20.994a1.415,1.415,0,0,0,2.053,1.491l5.782-3.039,5.782,3.039a1.416,1.416,0,0,0,2.053-1.491L20,14.558,24.679,10A1.416,1.416,0,0,0,23.9,7.586l-6.463-.942L14.544.787a1.417,1.417,0,0,0-2.539,0Z" transform="translate(476.142 310.001)" fill="#ffba00"/>
              <path id="Icon_awesome-star-3" data-name="Icon awesome-star" d="M12.005.787,9.116,6.644l-6.463.942A1.416,1.416,0,0,0,1.87,10l4.676,4.556L5.44,20.994a1.415,1.415,0,0,0,2.053,1.491l5.782-3.039,5.782,3.039a1.416,1.416,0,0,0,2.053-1.491L20,14.558,24.679,10A1.416,1.416,0,0,0,23.9,7.586l-6.463-.942L14.544.787a1.417,1.417,0,0,0-2.539,0Z" transform="translate(505.725 310.001)" fill="#ffba00"/>
              <path id="Icon_awesome-star-4" data-name="Icon awesome-star" d="M12.005.787,9.116,6.644l-6.463.942A1.416,1.416,0,0,0,1.87,10l4.676,4.556L5.44,20.994a1.415,1.415,0,0,0,2.053,1.491l5.782-3.039,5.782,3.039a1.416,1.416,0,0,0,2.053-1.491L20,14.558,24.679,10A1.416,1.416,0,0,0,23.9,7.586l-6.463-.942L14.544.787a1.417,1.417,0,0,0-2.539,0Z" transform="translate(535.309 310.001)" fill="#ffba00"/>
              <path id="Icon_awesome-star-half-alt" data-name="Icon awesome-star-half-alt" d="M22.454,7.573l-6.463-.941L13.1.786a1.418,1.418,0,0,0-2.539,0L7.675,6.631l-6.463.94a1.413,1.413,0,0,0-.783,2.41L5.1,14.53,4,20.953a1.416,1.416,0,0,0,1.4,1.654,1.4,1.4,0,0,0,.657-.166l5.782-3.032,5.781,3.033a1.413,1.413,0,0,0,2.053-1.488l-1.105-6.424,4.676-4.547a1.413,1.413,0,0,0-.783-2.411Zm-5.375,5.44-.8.778.189,1.1L17.33,19.9,12.82,17.532l-.988-.518V3.009l2.253,4.561.494,1,1.1.161,5.044.734-3.649,3.549Z" transform="translate(566.334 310.232)" fill="#ffba00"/>
            </g>
          </g>
          <g id="Group_171" data-name="Group 171" transform="translate(0 -2)">
            <text id="Napoleon_Hill" data-name="Napoleon Hill" transform="translate(141 314)" fill="#292929" font-size="20" font-family="NiveauGroteskRegular, Niveau Grotesk"><tspan x="0" y="0">Napoleon Hill</tspan></text>
            <g id="Rectangle_37" data-name="Rectangle 37" transform="translate(131 292)" fill="none" stroke="#000" stroke-width="1">
              <rect width="138" height="31" rx="11" stroke="none"/>
              <rect x="0.5" y="0.5" width="137" height="30" rx="10.5" fill="none"/>
            </g>
          </g>
        </g>
        <text id="Think_and_Grow_Rich_was_" data-name="Think and Grow Rich was …" transform="translate(169 432)" fill="#292929" font-size="24" font-family="NiveauGroteskRegular, Niveau Grotesk"><tspan x="0" y="22">Think and Grow Rich was …</tspan></text>
      </g>
    </g>
  </g>
</svg>
